<?xml version="1.0" encoding="iso-8859-1"?>
<!-- Uploaded to: SVG Repo, www.svgrepo.com, Generator: SVG Repo Mixer Tools -->
<svg fill="#000000" height="800px" width="800px" version="1.1" id="Layer_1" xmlns="http://www.w3.org/2000/svg" xmlns:xlink="http://www.w3.org/1999/xlink" 
	 viewBox="0 0 377.393 377.393" xml:space="preserve">
<g>
	<g>
		<path d="M221.861,52.449v24.192c6.866,1.705,13.404,4.311,19.533,7.777l17.183-17.183
			C247.236,59.817,234.743,54.886,221.861,52.449z"/>
		<path d="M278.504,132.178h24.253c-2.683-13.112-7.987-25.769-15.862-37.207l-17.07,17.075
			C273.681,118.354,276.584,125.092,278.504,132.178z"/>
		<path d="M182.222,77.025V52.772c-12.621,2.586-24.847,7.547-35.948,14.94l17.147,17.147
			C169.32,81.434,175.612,78.807,182.222,77.025z"/>
		<path d="M118.166,95.672c-7.47,11.049-12.513,23.229-15.181,35.825h24.299c1.843-6.584,4.521-12.846,7.997-18.708L118.166,95.672z
			"/>
		<path d="M122.82,360.033c-7.061,7.06-18.55,7.06-25.61,0l-2.688-2.688c-8.294-8.294-15.304-25.211-15.299-36.956l-0.005-2.345
			c0-14.94-8.274-34.918-18.842-45.486l-27.812-27.812l-8.535,8.535l27.817,27.812c8.294,8.294,15.304,25.216,15.304,36.956
			l0.005,2.345c0,14.945,8.274,34.924,18.836,45.486l2.688,2.688c11.766,11.766,30.915,11.766,42.68,0l59.622-59.622
			c-5.171-0.348-10.271-0.942-15.293-1.782L122.82,360.033z"/>
		<path d="M221.18,228.992v24.141c13.394-2.442,26.388-7.542,38.124-15.36l-17.152-17.152
			C235.624,224.425,228.594,227.226,221.18,228.992z"/>
		<path d="M287.412,209.818c7.9-11.689,13.138-24.627,15.672-37.996h-24.192c-1.833,7.357-4.71,14.351-8.596,20.884L287.412,209.818
			z"/>
		<path d="M201.704,0C117.946,0,50.044,67.901,50.044,151.66s67.901,151.66,151.659,151.66s151.66-67.901,151.66-151.66
			S285.462,0,201.704,0z M325.07,138.214h-51.333c-1.94-9.523-5.847-18.703-11.643-26.967l36.756-36.756
			C313.524,92.882,322.556,114.847,325.07,138.214z M215.83,28.396c23.383,2.632,45.297,11.771,63.601,26.522l-37.12,37.12
			c-8.177-5.335-17.193-8.832-26.481-10.522V28.396z M188.259,28.293v53.504c-9.037,1.843-17.782,5.407-25.718,10.721L124.53,54.508
			C142.931,39.839,164.891,30.802,188.259,28.293z M104.966,73.933l38.011,38.011c-5.391,7.885-9.037,16.584-10.967,25.59H78.445
			C81.076,114.15,90.216,92.232,104.966,73.933z M78.337,165.1h53.125c1.603,9.303,5.018,18.335,10.266,26.557l-37.171,37.171
			C89.883,210.432,80.851,188.472,78.337,165.1z M160.733,211.64c8.212,5.878,17.347,9.856,26.839,11.884v51.394
			c-23.381-2.632-45.293-11.771-63.596-26.521L160.733,211.64z M154.052,153.114c0-26.424,21.422-47.846,47.846-47.846
			s47.846,21.422,47.846,47.846s-21.422,47.846-47.846,47.846C175.474,200.96,154.052,179.538,154.052,153.114z M215.149,275.021
			v-50.949c9.8-1.69,19.318-5.366,27.889-11.105l35.84,35.835C260.476,263.475,238.516,272.512,215.149,275.021z M298.441,229.386
			l-35.84-35.84c5.821-8.515,9.636-17.981,11.418-27.761h50.944C322.331,189.164,313.192,211.082,298.441,229.386z"/>
		<path d="M126.547,171.136h-24.146c2.35,12.892,7.194,25.4,14.525,36.787l17.219-17.219
			C130.73,184.556,128.186,178.002,126.547,171.136z"/>
		<path d="M221.18,261.673v6.436c4.685-0.778,9.293-1.853,13.819-3.185l15.037-15.037c-8.156,3.963-16.773,6.907-25.795,8.719
			L221.18,261.673z"/>
		<path d="M161.501,219.407l-17.039,17.039c11.382,7.946,23.992,13.327,37.074,16.102v-24.305
			C174.47,226.263,167.758,223.304,161.501,219.407z"/>
		<circle cx="200.713" cy="153.121" r="22.617"/>
	</g>
</g>
</svg>