<?xml version="1.0" standalone="no"?>
<!DOCTYPE svg PUBLIC "-//W3C//DTD SVG 20010904//EN"
 "http://www.w3.org/TR/2001/REC-SVG-20010904/DTD/svg10.dtd">
<svg version="1.0" xmlns="http://www.w3.org/2000/svg"
 width="1250.000000pt" height="1250.000000pt" viewBox="0 0 1250.000000 1250.000000"
 preserveAspectRatio="xMidYMid meet">
<metadata>
Created by potrace 1.14, written by Peter Selinger 2001-2017
</metadata>
<g transform="translate(0.000000,1250.000000) scale(0.100000,-0.100000)"
fill="#000000" stroke="none">
<path d="M5938 11505 c-2 -1 -55 -6 -118 -9 -63 -4 -128 -9 -145 -11 -213 -30
-280 -41 -400 -66 -192 -40 -484 -124 -590 -169 -11 -4 -69 -27 -130 -51 -445
-174 -912 -484 -1269 -843 -156 -157 -178 -181 -317 -353 -399 -495 -677
-1067 -798 -1643 -17 -82 -26 -129 -46 -248 -2 -13 -7 -53 -11 -90 -3 -37 -8
-74 -9 -83 -17 -87 -23 -527 -11 -677 15 -168 16 -186 32 -307 62 -482 233
-1006 456 -1394 26 -46 48 -86 48 -88 0 -12 198 -302 265 -388 165 -212 410
-470 600 -632 527 -449 1122 -741 1780 -872 83 -16 169 -33 192 -36 75 -11
107 -15 158 -21 28 -3 61 -7 74 -9 103 -17 464 -23 656 -12 495 28 997 159
1463 383 122 58 319 163 341 181 3 2 -31 37 -75 79 -43 42 -116 111 -161 155
-58 56 -89 79 -107 79 -14 0 -83 -27 -153 -61 -312 -149 -580 -239 -908 -304
-60 -12 -323 -44 -415 -50 -123 -9 -412 -9 -520 0 -646 51 -1174 239 -1725
612 -628 426 -1062 966 -1310 1628 -119 318 -189 650 -222 1045 -10 122 -10
511 0 615 15 153 18 181 43 320 33 193 29 178 79 349 202 704 626 1299 1270
1784 296 223 560 373 870 495 241 95 520 171 740 202 22 3 54 7 70 10 33 5 88
11 186 20 90 9 417 10 509 1 150 -13 187 -18 309 -37 596 -94 1186 -359 1671
-750 157 -127 166 -135 320 -289 147 -147 265 -286 383 -451 270 -381 468
-851 551 -1309 9 -47 18 -98 21 -115 3 -16 8 -50 11 -75 3 -25 7 -52 9 -60 2
-8 7 -55 10 -105 4 -49 9 -103 12 -120 6 -35 6 -521 -1 -550 -2 -11 -7 -56
-11 -100 -3 -44 -13 -117 -21 -163 -8 -45 -17 -98 -20 -118 -11 -71 -65 -279
-101 -388 -120 -370 -292 -694 -566 -1069 l-79 -109 22 -23 c72 -77 340 -163
417 -134 51 19 281 376 417 647 228 456 365 939 403 1427 15 186 7 667 -12
759 -2 11 -6 46 -9 76 -8 79 -42 275 -72 410 -116 517 -373 1076 -682 1485
-46 60 -153 196 -162 205 -3 3 -20 23 -39 45 -43 51 -189 201 -277 285 -462
441 -1089 785 -1739 955 -132 35 -348 80 -420 89 -22 2 -78 9 -125 15 -47 6
-112 13 -145 16 -61 7 -462 15 -467 10z"/>
<path d="M5819 10856 c-2 -2 -42 -6 -89 -9 -755 -54 -1464 -392 -2016 -959
-579 -595 -929 -1303 -1001 -2024 -10 -101 -10 -484 0 -588 43 -442 184 -915
398 -1332 42 -84 90 -171 105 -195 15 -24 43 -69 63 -99 55 -87 191 -267 267
-355 639 -736 1574 -1152 2564 -1139 148 2 197 4 335 20 231 25 484 83 721
165 82 28 154 54 159 58 6 4 37 18 70 30 97 37 238 114 256 141 10 14 20 50
23 80 11 95 17 140 47 350 17 113 33 223 36 245 8 65 18 59 17 -11 -1 -90 21
-258 46 -360 85 -337 294 -585 623 -739 101 -47 289 -108 370 -120 26 -4 49
-11 52 -15 5 -7 -64 -63 -277 -224 -64 -48 -124 -96 -133 -106 -30 -33 -95 60
665 -945 187 -247 346 -457 353 -465 7 -8 45 -59 86 -113 76 -101 95 -118 121
-109 8 3 110 77 225 165 116 88 278 211 362 274 84 63 155 124 158 134 8 24
-177 275 -209 283 -26 7 -36 0 -261 -170 -172 -132 -221 -160 -242 -145 -10 7
-120 147 -213 270 -53 70 -61 86 -49 95 457 347 449 340 449 368 0 28 -180
258 -207 264 -28 7 -29 7 -267 -174 -96 -73 -188 -135 -204 -138 -29 -6 -35 0
-143 141 -63 81 -117 152 -121 159 -4 8 33 42 104 97 245 185 310 238 342 280
33 43 35 44 167 78 518 129 938 417 1365 931 143 172 428 575 419 591 -3 4
-58 45 -123 92 -64 46 -208 150 -320 230 -111 81 -206 147 -211 147 -5 0 -40
-44 -77 -97 -224 -323 -457 -586 -689 -778 -269 -223 -558 -339 -824 -330
-101 3 -162 17 -249 56 -227 101 -320 271 -243 444 10 22 60 96 112 165 148
197 223 315 330 515 200 376 329 833 356 1265 91 1408 -646 2685 -1891 3280
-335 160 -723 270 -1081 306 -38 3 -79 8 -90 11 -25 5 -530 14 -536 9z m376
-450 c279 -21 544 -218 686 -512 62 -127 82 -218 83 -364 0 -160 -23 -247
-114 -425 -37 -72 -70 -148 -74 -169 -6 -32 0 -123 19 -261 2 -16 6 -61 10
-100 3 -38 8 -83 10 -100 2 -16 7 -64 11 -105 3 -41 7 -79 8 -85 3 -26 -44 2
-210 125 -98 73 -193 145 -211 161 -64 55 -129 70 -323 74 -143 2 -188 7 -248
24 -327 96 -565 349 -636 676 -21 102 -15 316 14 414 107 374 405 617 795 649
50 4 95 7 100 6 6 -2 42 -5 80 -8z m-1945 -2050 c91 -25 204 -73 280 -120 62
-39 68 -41 145 -41 77 0 244 12 275 20 8 2 47 6 85 10 39 3 81 8 95 10 14 2
60 7 104 10 l78 6 -23 -33 c-12 -18 -94 -129 -181 -245 -88 -117 -165 -228
-173 -247 -11 -26 -14 -70 -11 -188 3 -133 1 -166 -19 -255 -25 -108 -81 -233
-136 -306 -146 -190 -379 -330 -614 -368 -289 -46 -634 102 -824 355 -192 255
-230 602 -98 891 119 261 342 441 627 506 96 22 296 19 390 -5z m4035 7 c284
-59 539 -272 646 -538 94 -236 84 -506 -28 -730 -148 -298 -456 -486 -793
-487 -155 -1 -256 26 -426 112 -72 37 -144 70 -161 73 -16 3 -74 2 -129 -4
-54 -5 -128 -12 -164 -15 -36 -3 -72 -7 -80 -9 -8 -2 -49 -7 -90 -10 -41 -4
-105 -10 -142 -14 -39 -4 -68 -3 -68 2 0 10 183 262 273 374 100 127 102 133
103 323 1 215 21 315 90 450 123 241 333 403 609 469 98 23 260 25 360 4z
m-2063 -433 c142 -53 237 -157 280 -305 86 -293 -160 -588 -467 -562 -272 23
-456 274 -399 544 34 163 169 298 337 339 70 16 183 9 249 -16z m-792 -1281
c41 -30 146 -108 232 -172 86 -65 172 -124 190 -131 18 -8 53 -12 78 -10 191
15 303 6 430 -37 444 -147 702 -639 568 -1084 -112 -372 -437 -626 -818 -640
-356 -13 -682 185 -836 508 -50 107 -74 204 -81 332 -9 189 33 357 132 520 60
98 62 122 31 400 -3 22 -8 74 -12 115 -3 41 -7 77 -9 80 -2 3 -6 50 -10 105
-7 97 -7 100 11 84 11 -8 53 -40 94 -70z"/>
<path d="M2940 4074 c-107 -23 -204 -77 -285 -158 -81 -82 -126 -154 -162
-258 -22 -61 -26 -91 -27 -183 0 -117 17 -196 69 -308 160 -352 180 -430 131
-520 -57 -106 -235 -123 -316 -31 -40 47 -52 77 -52 139 -1 58 19 103 81 185
23 31 40 64 39 75 -3 20 -228 197 -264 208 -24 8 -39 -4 -93 -77 -106 -142
-148 -273 -138 -427 32 -469 548 -702 930 -420 115 84 201 225 220 358 21 144
-4 236 -158 576 -80 177 -92 237 -62 318 27 73 98 142 162 158 133 33 256 -60
255 -195 -1 -39 -33 -107 -79 -169 -53 -70 -91 -138 -91 -162 0 -27 32 -60
128 -131 93 -69 122 -79 160 -56 39 23 156 182 196 267 58 122 69 219 41 363
-40 208 -186 373 -385 435 -82 25 -215 31 -300 13z"/>
<path d="M7954 3413 c-38 -14 -89 -31 -114 -37 -25 -7 -56 -18 -67 -25 -45
-23 -43 -31 62 -326 59 -165 169 -477 211 -600 24 -67 25 -95 5 -95 -5 0 -13
9 -16 21 -5 16 -131 168 -165 199 -3 3 -80 88 -170 190 -230 258 -237 265
-316 346 -89 92 -110 97 -232 59 -88 -27 -132 -55 -132 -85 0 -9 27 -95 59
-191 179 -527 393 -1157 473 -1394 50 -148 98 -278 106 -287 8 -10 23 -18 33
-18 24 0 278 87 295 100 8 7 9 22 4 43 -6 27 -132 384 -255 722 -44 121 -58
165 -53 171 3 2 40 -33 83 -78 43 -46 163 -171 266 -278 103 -107 223 -232
266 -277 89 -93 144 -133 182 -133 28 0 97 19 169 47 72 27 72 31 -23 310 -46
136 -163 482 -260 768 -97 286 -199 587 -225 668 -52 160 -68 192 -98 199 -11
3 -51 -6 -88 -19z"/>
<path d="M4445 3318 c-77 -10 -115 -23 -196 -65 -118 -61 -201 -156 -254 -288
-97 -243 -281 -803 -326 -990 -70 -293 81 -571 365 -674 62 -22 86 -26 196
-25 104 0 135 3 184 22 190 70 314 206 388 424 29 86 31 99 18 112 -15 14
-204 79 -266 92 -49 9 -70 -9 -114 -102 -47 -100 -94 -149 -159 -168 -54 -16
-91 -12 -148 16 -71 33 -110 111 -100 197 7 55 279 885 312 951 45 88 103 130
180 130 83 0 163 -60 191 -142 16 -50 15 -93 -7 -171 -15 -54 -13 -107 4 -124
18 -18 196 -81 250 -88 60 -8 78 12 109 118 30 108 33 293 4 377 -92 275 -346
435 -631 398z"/>
<path d="M5644 3030 c-12 -5 -24 -19 -27 -32 -4 -14 -6 -467 -6 -1007 1 -946
2 -983 19 -989 11 -4 224 -7 475 -7 l457 0 19 24 c18 22 19 37 16 168 -5 203
24 186 -327 187 l-280 1 0 242 0 243 283 0 c221 0 287 3 302 13 16 13 18 29
16 167 -1 84 -6 161 -11 170 -5 10 -20 19 -32 22 -13 2 -143 3 -290 3 -148 -1
-268 1 -269 4 -1 3 -2 93 -4 198 -2 145 1 197 10 210 12 16 37 18 272 19 308
2 288 0 307 19 12 12 15 45 15 170 1 148 0 155 -21 169 -19 14 -81 16 -463 15
-242 0 -450 -4 -461 -9z"/>
</g>
</svg>
